 <svg version="1.0" xmlns="http://www.w3.org/2000/svg" width="700.000000pt" height="700.000000pt" viewBox="0 0 700.000000 700.000000" preserveAspectRatio="xMidYMid meet">
<g transform="translate(0.000000,700.000000) scale(0.100000,-0.100000)" fill="#000000" stroke="none">
<path d="M110 6885 l-105 -105 1640 -1640 1640 -1640 -1640 -1640 -1640 -1640
108 -107 107 -108 1640 1640 1640 1640 1640 -1640 1640 -1640 107 108 108 107
-1640 1640 -1640 1640 1640 1640 1640 1640 -108 107 -107 108 -1640 -1640
-1640 -1640 -1638 1638 c-900 900 -1639 1637 -1642 1637 -3 0 -52 -47 -110
-105z"></path>
</g>
</svg>
