<svg xmlns="http://www.w3.org/2000/svg" viewBox="0 0 38.25 36.59"><title>Asset 2</title><g id="Layer_2" data-name="Layer 2"><g id="Layer_1-2" data-name="Layer 1"><path id="_003-linkedin" data-name=" 003-linkedin" d="M8.68,36.59H.47V11.9H8.68ZM4.58,8.54H4.52A4.27,4.27,0,1,1,4,0a4.14,4.14,0,0,1,.61,0,4.28,4.28,0,0,1,.65,8.53,5.61,5.61,0,0,1-.71,0ZM38.25,36.59h-8.2V23.39c0-3.32-1.19-5.58-4.15-5.58a4.47,4.47,0,0,0-4.23,3,5.63,5.63,0,0,0-.27,2V36.59H13.22s.1-22.36,0-24.68h8.2V15.4a8.16,8.16,0,0,1,7.39-4.07c5.4,0,9.44,3.53,9.44,11.11Z"/></g></g></svg>