<?xml version="1.0" encoding="UTF-8" standalone="no"?>
<!DOCTYPE svg PUBLIC "-//W3C//DTD SVG 1.1//EN" "http://www.w3.org/Graphics/SVG/1.1/DTD/svg11.dtd">
<svg width="100%" height="100%" viewBox="0 0 750 1113" version="1.1" xmlns="http://www.w3.org/2000/svg" xmlns:xlink="http://www.w3.org/1999/xlink" xml:space="preserve" xmlns:serif="http://www.serif.com/" style="fill-rule:evenodd;clip-rule:evenodd;stroke-linejoin:round;stroke-miterlimit:2;">
    <g transform="matrix(4.16667,0,0,4.16667,0,0)">
        <path d="M18.119,94.487L25.705,94.487C30.106,94.487 33.323,93.445 35.359,91.356C37.391,89.267 38.414,85.635 38.414,80.467L38.414,66.762C38.414,62.136 37.613,58.675 36.016,56.362C34.424,54.049 30.991,52.899 25.705,52.899L18.119,52.899L18.119,38.373L28.676,38.373C36.601,38.373 42.622,40.546 46.745,44.896C50.869,49.24 52.934,55.705 52.934,64.284L52.934,82.113C52.934,86.735 51.887,90.502 49.8,93.422C47.702,96.336 44.903,98.403 41.386,99.608C44.792,100.71 47.702,102.91 50.128,106.214C52.544,109.515 53.757,114.194 53.757,120.238L53.757,167.615L39.238,167.615L39.238,122.056C39.238,119.085 39.016,116.669 38.576,114.794C38.136,112.926 37.424,111.493 36.433,110.503C35.448,109.515 34.146,108.833 32.56,108.438C30.958,108.055 28.047,108.022 25.732,108.022L18.119,108.022L18.119,94.487Z" style="fill:rgb(35,31,32);fill-rule:nonzero;"/>
        <path d="M179.704,205.565L0,205.565L0,167.609L12.81,167.609L12.81,192.318L166.894,192.318L166.894,13.667L12.81,13.667L12.81,108.022L0,108.022L0,0.419L179.704,0.419L179.704,205.565Z" style="fill:rgb(35,31,32);fill-rule:nonzero;"/>
        <path d="M13.172,227.717C13.172,226.457 12.799,225.48 12.042,224.793C11.291,224.1 10.367,223.752 9.271,223.752L5.37,223.752L5.37,260.784L9.271,260.784C10.367,260.784 11.291,260.396 12.042,259.624C12.799,258.848 13.172,257.913 13.172,256.818L13.172,227.717ZM18.542,256.818C18.542,258.12 18.33,259.337 17.902,260.478C17.473,261.612 16.867,262.601 16.071,263.436C15.281,264.271 14.301,264.93 13.144,265.417C11.987,265.906 10.689,266.146 9.271,266.146L0,266.146L0,218.388L9.271,218.388C10.689,218.388 11.987,218.624 13.144,219.089C14.301,219.554 15.281,220.205 16.071,221.039C16.867,221.877 17.473,222.858 17.902,224C18.33,225.135 18.542,226.376 18.542,227.717L18.542,256.818Z" style="fill:rgb(35,31,32);fill-rule:nonzero;"/>
        <path d="M39.895,266.146L24.096,266.146L24.096,218.388L39.895,218.388L39.895,223.752L29.466,223.752L29.466,238.881L35.499,238.881L35.499,244.251L29.466,244.251L29.466,260.784L39.895,260.784L39.895,266.146Z" style="fill:rgb(35,31,32);fill-rule:nonzero;"/>
        <path d="M57.703,228.881C57.703,227.169 57.408,225.887 56.817,225.034C56.228,224.18 54.96,223.752 53.006,223.752L50.201,223.752L50.201,239.125L53.006,239.125C54.636,239.125 55.822,238.738 56.573,237.967C57.33,237.197 57.703,235.85 57.703,233.939L57.703,228.881ZM63.378,266.146L58.008,266.146L58.008,249.315C58.008,248.213 57.925,247.319 57.764,246.633C57.597,245.937 57.335,245.407 56.968,245.044C56.606,244.679 56.128,244.426 55.532,244.278C54.948,244.136 54.225,244.067 53.373,244.067L50.201,244.067L50.201,266.146L44.831,266.146L44.831,218.388L54.102,218.388C57.035,218.388 59.255,219.189 60.786,220.794C62.311,222.405 63.073,224.793 63.073,227.963L63.073,234.551C63.073,236.256 62.683,237.651 61.916,238.728C61.142,239.811 60.107,240.566 58.799,241.015C60.062,241.427 61.142,242.238 62.033,243.455C62.928,244.679 63.378,246.407 63.378,248.645L63.378,266.146Z" style="fill:rgb(35,31,32);fill-rule:nonzero;"/>
        <path d="M94.604,228.881C94.604,227.169 94.314,225.887 93.724,225.034C93.135,224.18 91.861,223.752 89.907,223.752L87.103,223.752L87.103,239.125L89.907,239.125C91.538,239.125 92.723,238.738 93.474,237.967C94.231,237.197 94.604,235.85 94.604,233.939L94.604,228.881ZM100.28,266.146L94.91,266.146L94.91,249.315C94.91,248.213 94.833,247.319 94.665,246.633C94.504,245.937 94.243,245.407 93.875,245.044C93.507,244.679 93.029,244.426 92.44,244.278C91.855,244.136 91.131,244.067 90.274,244.067L87.103,244.067L87.103,266.146L81.738,266.146L81.738,218.388L91.008,218.388C93.936,218.388 96.157,219.189 97.687,220.794C99.211,222.405 99.974,224.793 99.974,227.963L99.974,234.551C99.974,236.256 99.59,237.651 98.817,238.728C98.043,239.811 97.008,240.566 95.706,241.015C96.963,241.427 98.043,242.238 98.933,243.455C99.83,244.679 100.28,246.407 100.28,248.645L100.28,266.146Z" style="fill:rgb(35,31,32);fill-rule:nonzero;"/>
        <path d="M117.666,255.23L114.917,234.304L112.111,255.23L117.666,255.23ZM124.499,266.146L119.063,266.146L118.272,260.232L111.506,260.232L110.771,266.146L105.033,266.146L112.356,218.388L117.298,218.388L124.499,266.146Z" style="fill:rgb(35,31,32);fill-rule:nonzero;"/>
        <path d="M147.065,257.73C147.065,259.154 146.826,260.437 146.331,261.572C145.847,262.712 145.185,263.689 144.355,264.499C143.521,265.316 142.541,265.934 141.422,266.357C140.31,266.789 139.096,267 137.789,267C136.53,267 135.345,266.789 134.228,266.357C133.108,265.934 132.117,265.316 131.267,264.499C130.414,263.689 129.741,262.712 129.257,261.572C128.768,260.437 128.528,259.154 128.528,257.73L128.528,218.388L133.893,218.388L133.893,257.73C133.893,259.111 134.266,260.107 135.018,260.719C135.774,261.331 136.698,261.637 137.789,261.637C138.857,261.637 139.764,261.331 140.537,260.719C141.306,260.107 141.694,259.111 141.694,257.73L141.694,218.388L147.065,218.388L147.065,257.73Z" style="fill:rgb(35,31,32);fill-rule:nonzero;"/>
        <path d="M179.704,266.146L174.762,266.146L174.762,239.244L168.479,266.146L163.905,266.146L157.683,239.244L157.683,266.146L152.675,266.146L152.675,218.388L159.207,218.388L166.465,253.708L174.334,218.388L179.704,218.388L179.704,266.146Z" style="fill:rgb(35,31,32);fill-rule:nonzero;"/>
    </g>
</svg>
