<svg xmlns="http://www.w3.org/2000/svg" viewBox="0 0 32.41 40.45"><title>Asset 3</title><g id="Layer_2" data-name="Layer 2"><g id="Layer_1-2" data-name="Layer 1"><g id="_002-pinterest" data-name=" 002-pinterest"><g id="Group_10" data-name="Group 10"><g id="Group_8" data-name="Group 8"><path id="Path_4" data-name="Path 4" d="M17.2,0C5.79,0,.05,7.91.05,14.51A8.89,8.89,0,0,0,5,23.39a1.15,1.15,0,0,0,.41.08.8.8,0,0,0,.79-.66c.12-.41.37-1.44.5-1.87a1.11,1.11,0,0,0-.35-1.3A6.56,6.56,0,0,1,4.72,15.1,11.2,11.2,0,0,1,16,4l.57,0c6.45,0,10,3.81,10,8.9,0,6.7-3.06,12.34-7.61,12.34A3.62,3.62,0,0,1,15,21.85a3.46,3.46,0,0,1,.09-1.11,47.93,47.93,0,0,0,2.12-8.24A3.14,3.14,0,0,0,14.46,9,2.33,2.33,0,0,0,14,9c-2.56,0-4.63,2.57-4.63,6a8.81,8.81,0,0,0,.77,3.68S7.52,29.47,7.05,31.36A25.43,25.43,0,0,0,7,40.19a.31.31,0,0,0,.33.26.35.35,0,0,0,.26-.13,24.33,24.33,0,0,0,4.33-7.6c.3-1,1.69-6.38,1.69-6.38a7,7,0,0,0,5.87,2.89c7.71,0,12.95-6.8,12.95-15.91C32.4,6.42,26.37,0,17.2,0Z"/></g></g></g></g></g></svg>