<svg xmlns="http://www.w3.org/2000/svg" viewBox="0 0 40.17 34"><title>Asset 4</title><g id="Layer_2" data-name="Layer 2"><g id="Layer_1-2" data-name="Layer 1"><g id="_001-twitter-black-shape" data-name=" 001-twitter-black-shape"><g id="Group_5" data-name="Group 5"><path id="Path_2" data-name="Path 2" d="M39,4.79,38.38,5c-1.21.31-1.32-.09-.45-1a8.12,8.12,0,0,0,1-1.3c.68-1.05.09-1.51-1-1-.41.18-.83.34-1.25.48a5.25,5.25,0,0,1-3.92-.87A8.66,8.66,0,0,0,22.14,2.51a8.26,8.26,0,0,0-2.51,6.07,8.06,8.06,0,0,0,.06,1c.06.54-.86.93-2.1.76A23.83,23.83,0,0,1,10,7.89a24.2,24.2,0,0,1-6.3-4.65c-.88-.89-2-.81-2.37.39A8.13,8.13,0,0,0,1,5.88,8.34,8.34,0,0,0,2,10a8.58,8.58,0,0,0,1.21,1.7c.77.86.65,1.35-.42,1.05A13.8,13.8,0,0,1,1,12v.06a8.33,8.33,0,0,0,2,5.46,8.56,8.56,0,0,0,2.8,2.23c1.12.56,1.62.87,1,1a8.72,8.72,0,0,1-1.14.07l-.81,0c-.45,0-.53.89.15,1.95A8.49,8.49,0,0,0,7,24.88a8.62,8.62,0,0,0,2.76,1.38c1.21.34,1.45,1,.37,1.6A16.77,16.77,0,0,1,1.3,30.25c-.36,0-.71,0-1,0-.57,0-.19.48.92,1.06A24,24,0,0,0,12.41,34,25.11,25.11,0,0,0,21,32.55a21.84,21.84,0,0,0,6.85-3.88,26.14,26.14,0,0,0,4.9-5.59,24.87,24.87,0,0,0,3.07-6.61,24,24,0,0,0,1-6.89V9c0-.31.81-1.14,1.72-2a16.71,16.71,0,0,0,1.17-1.21C40.55,4.87,40.19,4.44,39,4.79Z"/></g></g></g></g></svg>